<svg xmlns="http://www.w3.org/2000/svg" viewBox="0 0 1600 900" preserveAspectRatio="xMidYMid slice">
  <defs>
    <filter id="wc" x="-20%" y="-20%" width="140%" height="140%">
      <feTurbulence type="fractalNoise" baseFrequency="0.012" numOctaves="4" seed="3" result="noise"/>
      <feDisplacementMap in="SourceGraphic" in2="noise" scale="50" xChannelSelector="R" yChannelSelector="G"/>
      <feGaussianBlur stdDeviation="12"/>
    </filter>
  </defs>

  <!-- Fond papier quadrillé -->
  <rect width="1600" height="900" fill="#faf8ff"/>
  <!-- Grille -->
  <g stroke="#c5b8d9" stroke-width="0.5" opacity="0.3">
    <!-- Lignes verticales -->
    <line x1="0" y1="0" x2="0" y2="900"/><line x1="30" y1="0" x2="30" y2="900"/><line x1="60" y1="0" x2="60" y2="900"/><line x1="90" y1="0" x2="90" y2="900"/><line x1="120" y1="0" x2="120" y2="900"/><line x1="150" y1="0" x2="150" y2="900"/><line x1="180" y1="0" x2="180" y2="900"/><line x1="210" y1="0" x2="210" y2="900"/><line x1="240" y1="0" x2="240" y2="900"/><line x1="270" y1="0" x2="270" y2="900"/><line x1="300" y1="0" x2="300" y2="900"/><line x1="330" y1="0" x2="330" y2="900"/><line x1="360" y1="0" x2="360" y2="900"/><line x1="390" y1="0" x2="390" y2="900"/><line x1="420" y1="0" x2="420" y2="900"/><line x1="450" y1="0" x2="450" y2="900"/><line x1="480" y1="0" x2="480" y2="900"/><line x1="510" y1="0" x2="510" y2="900"/><line x1="540" y1="0" x2="540" y2="900"/><line x1="570" y1="0" x2="570" y2="900"/><line x1="600" y1="0" x2="600" y2="900"/><line x1="630" y1="0" x2="630" y2="900"/><line x1="660" y1="0" x2="660" y2="900"/><line x1="690" y1="0" x2="690" y2="900"/><line x1="720" y1="0" x2="720" y2="900"/><line x1="750" y1="0" x2="750" y2="900"/><line x1="780" y1="0" x2="780" y2="900"/><line x1="810" y1="0" x2="810" y2="900"/><line x1="840" y1="0" x2="840" y2="900"/><line x1="870" y1="0" x2="870" y2="900"/><line x1="900" y1="0" x2="900" y2="900"/><line x1="930" y1="0" x2="930" y2="900"/><line x1="960" y1="0" x2="960" y2="900"/><line x1="990" y1="0" x2="990" y2="900"/><line x1="1020" y1="0" x2="1020" y2="900"/><line x1="1050" y1="0" x2="1050" y2="900"/><line x1="1080" y1="0" x2="1080" y2="900"/><line x1="1110" y1="0" x2="1110" y2="900"/><line x1="1140" y1="0" x2="1140" y2="900"/><line x1="1170" y1="0" x2="1170" y2="900"/><line x1="1200" y1="0" x2="1200" y2="900"/><line x1="1230" y1="0" x2="1230" y2="900"/><line x1="1260" y1="0" x2="1260" y2="900"/><line x1="1290" y1="0" x2="1290" y2="900"/><line x1="1320" y1="0" x2="1320" y2="900"/><line x1="1350" y1="0" x2="1350" y2="900"/><line x1="1380" y1="0" x2="1380" y2="900"/><line x1="1410" y1="0" x2="1410" y2="900"/><line x1="1440" y1="0" x2="1440" y2="900"/><line x1="1470" y1="0" x2="1470" y2="900"/><line x1="1500" y1="0" x2="1500" y2="900"/><line x1="1530" y1="0" x2="1530" y2="900"/><line x1="1560" y1="0" x2="1560" y2="900"/><line x1="1590" y1="0" x2="1590" y2="900"/>
    <!-- Lignes horizontales -->
    <line x1="0" y1="0" x2="1600" y2="0"/><line x1="0" y1="30" x2="1600" y2="30"/><line x1="0" y1="60" x2="1600" y2="60"/><line x1="0" y1="90" x2="1600" y2="90"/><line x1="0" y1="120" x2="1600" y2="120"/><line x1="0" y1="150" x2="1600" y2="150"/><line x1="0" y1="180" x2="1600" y2="180"/><line x1="0" y1="210" x2="1600" y2="210"/><line x1="0" y1="240" x2="1600" y2="240"/><line x1="0" y1="270" x2="1600" y2="270"/><line x1="0" y1="300" x2="1600" y2="300"/><line x1="0" y1="330" x2="1600" y2="330"/><line x1="0" y1="360" x2="1600" y2="360"/><line x1="0" y1="390" x2="1600" y2="390"/><line x1="0" y1="420" x2="1600" y2="420"/><line x1="0" y1="450" x2="1600" y2="450"/><line x1="0" y1="480" x2="1600" y2="480"/><line x1="0" y1="510" x2="1600" y2="510"/><line x1="0" y1="540" x2="1600" y2="540"/><line x1="0" y1="570" x2="1600" y2="570"/><line x1="0" y1="600" x2="1600" y2="600"/><line x1="0" y1="630" x2="1600" y2="630"/><line x1="0" y1="660" x2="1600" y2="660"/><line x1="0" y1="690" x2="1600" y2="690"/><line x1="0" y1="720" x2="1600" y2="720"/><line x1="0" y1="750" x2="1600" y2="750"/><line x1="0" y1="780" x2="1600" y2="780"/><line x1="0" y1="810" x2="1600" y2="810"/><line x1="0" y1="840" x2="1600" y2="840"/><line x1="0" y1="870" x2="1600" y2="870"/><line x1="0" y1="900" x2="1600" y2="900"/>
  </g>

  <!-- Taches aquarelle aux coins et bords -->
  <!-- Violet haut gauche -->
  <ellipse cx="80" cy="80" rx="280" ry="220" fill="#6329bb" opacity="0.3" filter="url(#wc)"/>
  <!-- Rose haut gauche/centre -->
  <ellipse cx="350" cy="150" rx="250" ry="200" fill="#ef17b3" opacity="0.25" filter="url(#wc)"/>
  <!-- Orange haut droite -->
  <ellipse cx="1400" cy="100" rx="300" ry="230" fill="#fd9804" opacity="0.3" filter="url(#wc)"/>
  <!-- Rose bas gauche -->
  <ellipse cx="200" cy="780" rx="320" ry="250" fill="#ef17b3" opacity="0.3" filter="url(#wc)"/>
  <!-- Bleu bas droite -->
  <ellipse cx="1400" cy="750" rx="300" ry="280" fill="#0ab6c9" opacity="0.3" filter="url(#wc)"/>
  <!-- Vert clair droite -->
  <ellipse cx="1550" cy="400" rx="200" ry="250" fill="#7fda19" opacity="0.2" filter="url(#wc)"/>
  <!-- Vert foncé bas centre -->
  <ellipse cx="700" cy="850" rx="250" ry="180" fill="#43ab51" opacity="0.2" filter="url(#wc)"/>
  <!-- Violet bas droite -->
  <ellipse cx="1200" cy="800" rx="200" ry="180" fill="#6329bb" opacity="0.2" filter="url(#wc)"/>
  <!-- Orange gauche -->
  <ellipse cx="50" cy="450" rx="180" ry="200" fill="#fd9804" opacity="0.2" filter="url(#wc)"/>

  <!-- Petites éclaboussures -->
  <circle cx="300" cy="300" r="8" fill="#ef17b3" opacity="0.4"/>
  <circle cx="310" cy="315" r="4" fill="#ef17b3" opacity="0.3"/>
  <circle cx="285" cy="308" r="3" fill="#ef17b3" opacity="0.35"/>
  <circle cx="1100" cy="200" r="6" fill="#fd9804" opacity="0.4"/>
  <circle cx="1112" cy="190" r="3" fill="#fd9804" opacity="0.3"/>
  <circle cx="500" cy="750" r="7" fill="#6329bb" opacity="0.35"/>
  <circle cx="512" cy="740" r="4" fill="#6329bb" opacity="0.3"/>
  <circle cx="1300" cy="500" r="5" fill="#0ab6c9" opacity="0.4"/>
  <circle cx="1310" cy="510" r="3" fill="#0ab6c9" opacity="0.3"/>
  <circle cx="900" cy="100" r="6" fill="#43ab51" opacity="0.3"/>
  <circle cx="150" cy="600" r="5" fill="#7fda19" opacity="0.35"/>

  <!-- ===== DESSINS STYLE CRAYON/DOODLE ===== -->
  <g fill="none" stroke="#4a3580" stroke-width="2" stroke-linecap="round" stroke-linejoin="round" opacity="0.4">

    <!-- Équerre haut gauche -->
    <g transform="translate(100, 60) rotate(-15)">
      <path d="M0 0 L80 0 L0 80 Z"/>
      <line x1="15" y1="0" x2="0" y2="15"/>
      <line x1="30" y1="0" x2="0" y2="30"/>
      <line x1="45" y1="0" x2="0" y2="45"/>
      <line x1="60" y1="0" x2="0" y2="60"/>
    </g>

    <!-- Crayon haut gauche -->
    <g transform="translate(280, 200) rotate(-30)">
      <rect x="0" y="0" width="80" height="16" rx="2"/>
      <line x1="80" y1="0" x2="95" y2="8"/>
      <line x1="80" y1="16" x2="95" y2="8"/>
      <line x1="15" y1="0" x2="15" y2="16"/>
    </g>

    <!-- Cahier/bloc-notes haut centre gauche -->
    <g transform="translate(180, 120) rotate(5)">
      <rect x="0" y="0" width="55" height="65" rx="3"/>
      <line x1="10" y1="12" x2="45" y2="12"/>
      <line x1="10" y1="22" x2="45" y2="22"/>
      <line x1="10" y1="32" x2="45" y2="32"/>
      <line x1="10" y1="42" x2="35" y2="42"/>
      <circle cx="10" cy="-3" r="4"/><circle cx="22" cy="-3" r="4"/><circle cx="34" cy="-3" r="4"/><circle cx="46" cy="-3" r="4"/>
    </g>

    <!-- Soleil haut centre -->
    <g transform="translate(500, 120)">
      <circle cx="0" cy="0" r="18"/>
      <circle cx="-5" cy="-5" r="2"/><circle cx="5" cy="-5" r="2"/>
      <path d="M-6 5 Q0 12 6 5"/>
      <line x1="0" y1="-28" x2="0" y2="-22"/><line x1="20" y1="-20" x2="16" y2="-16"/>
      <line x1="28" y1="0" x2="22" y2="0"/><line x1="20" y1="20" x2="16" y2="16"/>
      <line x1="0" y1="28" x2="0" y2="22"/><line x1="-20" y1="20" x2="-16" y2="16"/>
      <line x1="-28" y1="0" x2="-22" y2="0"/><line x1="-20" y1="-20" x2="-16" y2="-16"/>
    </g>

    <!-- "abc" texte haut -->
    <text x="420" y="230" font-family="Comic Sans MS, cursive" font-size="22" fill="#4a3580" stroke="none" opacity="0.5">abc</text>

    <!-- "a + b = c" haut centre -->
    <text x="680" y="160" font-family="Comic Sans MS, cursive" font-size="18" fill="#4a3580" stroke="none" opacity="0.45">a + b = c</text>

    <!-- Nuage haut centre droit -->
    <g transform="translate(620, 90)">
      <circle cx="0" cy="0" r="15"/><circle cx="14" cy="-5" r="12"/><circle cx="25" cy="2" r="14"/><circle cx="12" cy="8" r="10"/>
    </g>

    <!-- Livre haut centre droit -->
    <g transform="translate(700, 240) rotate(10)">
      <path d="M0 0 L50 0 L50 65 L0 65 Z"/>
      <line x1="25" y1="0" x2="25" y2="65"/>
      <path d="M0 0 Q25 8 50 0"/>
    </g>

    <!-- Ciseaux centre gauche -->
    <g transform="translate(350, 350) rotate(20)">
      <ellipse cx="-12" cy="20" rx="10" ry="14"/>
      <ellipse cx="12" cy="20" rx="10" ry="14"/>
      <line x1="-8" y1="8" x2="10" y2="-25"/>
      <line x1="8" y1="8" x2="-10" y2="-25"/>
    </g>

    <!-- Règle centre gauche bas -->
    <g transform="translate(80, 380) rotate(15)">
      <rect x="0" y="0" width="120" height="22" rx="2"/>
      <line x1="20" y1="0" x2="20" y2="8"/><line x1="40" y1="0" x2="40" y2="12"/>
      <line x1="60" y1="0" x2="60" y2="8"/><line x1="80" y1="0" x2="80" y2="12"/>
      <line x1="100" y1="0" x2="100" y2="8"/>
    </g>

    <!-- Pomme centre -->
    <g transform="translate(850, 500)">
      <path d="M0 -5 Q-20 0 -22 20 Q-20 42 0 45 Q20 42 22 20 Q20 0 0 -5Z"/>
      <path d="M0 -5 Q5 -18 15 -20"/>
      <path d="M2 -8 Q8 -5 12 -10"/>
    </g>

    <!-- "1+1=2" centre gauche -->
    <text x="100" y="180" font-family="Comic Sans MS, cursive" font-size="18" fill="#4a3580" stroke="none" opacity="0.45">1+1 = 2</text>

    <!-- Éprouvette bas gauche -->
    <g transform="translate(120, 580) rotate(-10)">
      <path d="M0 0 L0 50 Q0 60 10 60 Q20 60 20 50 L20 0"/>
      <line x1="-5" y1="0" x2="25" y2="0"/>
      <line x1="3" y1="35" x2="17" y2="35"/>
      <ellipse cx="10" cy="48" rx="7" ry="5" fill="#0ab6c9" stroke="none" opacity="0.3"/>
    </g>

    <!-- Atome gauche -->
    <g transform="translate(70, 280)">
      <circle cx="0" cy="0" r="4" fill="#4a3580" stroke="none" opacity="0.4"/>
      <ellipse cx="0" cy="0" rx="25" ry="10" transform="rotate(0)"/>
      <ellipse cx="0" cy="0" rx="25" ry="10" transform="rotate(60)"/>
      <ellipse cx="0" cy="0" rx="25" ry="10" transform="rotate(-60)"/>
    </g>

    <!-- Spirale/gribouillis centre bas -->
    <path d="M650 680 Q660 670 670 680 Q680 690 670 700 Q660 710 650 700 Q640 690 650 678 Q665 660 680 675 Q695 690 678 708"/>

    <!-- Bloc-notes centre bas -->
    <g transform="translate(500, 620) rotate(-8)">
      <rect x="0" y="0" width="55" height="65" rx="3"/>
      <line x1="10" y1="12" x2="45" y2="12"/>
      <line x1="10" y1="22" x2="45" y2="22"/>
      <line x1="10" y1="32" x2="45" y2="32"/>
      <line x1="10" y1="42" x2="35" y2="42"/>
      <circle cx="10" cy="-3" r="4"/><circle cx="22" cy="-3" r="4"/><circle cx="34" cy="-3" r="4"/><circle cx="46" cy="-3" r="4"/>
    </g>

    <!-- "a + b = c" bas centre -->
    <text x="750" y="770" font-family="Comic Sans MS, cursive" font-size="20" fill="#4a3580" stroke="none" opacity="0.45">a + b = c</text>

    <!-- Équerre centre droite -->
    <g transform="translate(1050, 480) rotate(10)">
      <path d="M0 0 L90 0 L0 90 Z"/>
      <line x1="18" y1="0" x2="0" y2="18"/>
      <line x1="36" y1="0" x2="0" y2="36"/>
      <line x1="54" y1="0" x2="0" y2="54"/>
      <line x1="72" y1="0" x2="0" y2="72"/>
    </g>

    <!-- Cahier droite -->
    <g transform="translate(1350, 250) rotate(-5)">
      <rect x="0" y="0" width="55" height="65" rx="3"/>
      <line x1="10" y1="12" x2="45" y2="12"/>
      <line x1="10" y1="22" x2="45" y2="22"/>
      <line x1="10" y1="32" x2="45" y2="32"/>
      <line x1="10" y1="42" x2="35" y2="42"/>
      <circle cx="10" cy="-3" r="4"/><circle cx="22" cy="-3" r="4"/><circle cx="34" cy="-3" r="4"/><circle cx="46" cy="-3" r="4"/>
    </g>

    <!-- Livre droite -->
    <g transform="translate(1430, 400) rotate(-15)">
      <path d="M0 0 L50 0 L50 65 L0 65 Z"/>
      <line x1="25" y1="0" x2="25" y2="65"/>
      <path d="M0 0 Q25 8 50 0"/>
    </g>

    <!-- "1+1=2" droite -->
    <text x="1200" y="650" font-family="Comic Sans MS, cursive" font-size="20" fill="#4a3580" stroke="none" opacity="0.45">1+1 = 2</text>

    <!-- Nuage droite bas -->
    <g transform="translate(1100, 720)">
      <circle cx="0" cy="0" r="15"/><circle cx="14" cy="-5" r="12"/><circle cx="25" cy="2" r="14"/><circle cx="12" cy="8" r="10"/>
    </g>

    <!-- Soleil bas droite -->
    <g transform="translate(1420, 700)">
      <circle cx="0" cy="0" r="22"/>
      <circle cx="-6" cy="-6" r="3"/><circle cx="6" cy="-6" r="3"/>
      <path d="M-7 6 Q0 14 7 6"/>
      <line x1="0" y1="-34" x2="0" y2="-27"/><line x1="24" y1="-24" x2="19" y2="-19"/>
      <line x1="34" y1="0" x2="27" y2="0"/><line x1="24" y1="24" x2="19" y2="19"/>
      <line x1="0" y1="34" x2="0" y2="27"/><line x1="-24" y1="24" x2="-19" y2="19"/>
      <line x1="-34" y1="0" x2="-27" y2="0"/><line x1="-24" y1="-24" x2="-19" y2="-19"/>
    </g>

    <!-- Ciseaux bas droite -->
    <g transform="translate(1300, 820) rotate(-25)">
      <ellipse cx="-12" cy="20" rx="10" ry="14"/>
      <ellipse cx="12" cy="20" rx="10" ry="14"/>
      <line x1="-8" y1="8" x2="10" y2="-25"/>
      <line x1="8" y1="8" x2="-10" y2="-25"/>
    </g>

    <!-- Crayon bas -->
    <g transform="translate(900, 820) rotate(15)">
      <rect x="0" y="0" width="80" height="16" rx="2"/>
      <line x1="80" y1="0" x2="95" y2="8"/>
      <line x1="80" y1="16" x2="95" y2="8"/>
      <line x1="15" y1="0" x2="15" y2="16"/>
    </g>

    <!-- Éprouvette bas droite -->
    <g transform="translate(1150, 800) rotate(10)">
      <path d="M0 0 L0 50 Q0 60 10 60 Q20 60 20 50 L20 0"/>
      <line x1="-5" y1="0" x2="25" y2="0"/>
      <line x1="3" y1="35" x2="17" y2="35"/>
    </g>

    <!-- Pomme haut droite -->
    <g transform="translate(1250, 130)">
      <path d="M0 -5 Q-18 0 -20 18 Q-18 38 0 40 Q18 38 20 18 Q18 0 0 -5Z"/>
      <path d="M0 -5 Q5 -16 13 -18"/>
      <path d="M2 -7 Q7 -4 11 -9"/>
    </g>

    <!-- Atome droite -->
    <g transform="translate(1320, 150)">
      <circle cx="0" cy="0" r="4" fill="#4a3580" stroke="none" opacity="0.4"/>
      <ellipse cx="0" cy="0" rx="22" ry="9" transform="rotate(0)"/>
      <ellipse cx="0" cy="0" rx="22" ry="9" transform="rotate(60)"/>
      <ellipse cx="0" cy="0" rx="22" ry="9" transform="rotate(-60)"/>
    </g>

    <!-- "abc" bas -->
    <text x="1150" y="710" font-family="Comic Sans MS, cursive" font-size="22" fill="#4a3580" stroke="none" opacity="0.5">abc</text>

    <!-- Spirale haut -->
    <path d="M580 200 Q590 190 600 200 Q610 210 600 220 Q590 230 580 220 Q570 210 580 198 Q595 180 610 195"/>

    <!-- % symbole -->
    <text x="550" y="70" font-family="Comic Sans MS, cursive" font-size="24" fill="#4a3580" stroke="none" opacity="0.4">%</text>

    <!-- Règle haut droite -->
    <g transform="translate(900, 50) rotate(-20)">
      <rect x="0" y="0" width="110" height="20" rx="2"/>
      <line x1="20" y1="0" x2="20" y2="7"/><line x1="40" y1="0" x2="40" y2="11"/>
      <line x1="60" y1="0" x2="60" y2="7"/><line x1="80" y1="0" x2="80" y2="11"/>
    </g>

    <!-- Pomme bas gauche -->
    <g transform="translate(350, 750)">
      <path d="M0 -5 Q-18 0 -20 18 Q-18 38 0 40 Q18 38 20 18 Q18 0 0 -5Z"/>
      <path d="M0 -5 Q5 -16 13 -18"/>
    </g>

    <!-- Spirale gauche -->
    <path d="M60 500 Q70 490 80 500 Q90 510 80 520 Q70 530 60 520 Q50 510 60 498"/>

  </g>
</svg>
